<svg width="121" height="27" viewBox="0 0 121 27" fill="none" xmlns="http://www.w3.org/2000/svg">
<path d="M116.826 3.39228V9.6923H119.2V12.7385H116.826V18.4154C116.826 18.9692 116.974 19.3846 117.271 19.6615C117.568 19.9384 118.013 20.0769 118.607 20.0769C118.903 20.0769 120.312 20.0769 120.312 20.0769V23.6769C120.312 23.6769 117.716 23.6769 117.345 23.6769C116.158 23.6769 114.675 23.4692 113.636 22.5693C112.597 21.6692 112.152 20.4923 112.152 18.8308V12.6692H110.001V9.62306H112.152V3.39228H116.826ZM102.953 23.9538C100.802 23.9538 98.9465 23.2616 97.6856 22.0154C96.3501 20.7692 95.7566 19.1077 95.7566 17.1692V16.6846C95.7566 14.5384 96.3501 12.8077 97.5371 11.4231C98.7241 10.1077 100.431 9.41538 102.656 9.41538C104.659 9.41538 106.291 9.96922 107.404 11.0769C108.591 12.2538 109.11 13.7769 109.11 15.7154V18H100.579V18.0692C100.653 18.8308 101.024 19.3154 101.543 19.8C102.062 20.2846 102.804 20.4923 103.62 20.4923C104.511 20.4923 105.178 20.4231 105.698 20.2846C106.217 20.1462 106.959 19.9385 107.701 19.5923L108.814 22.2923C108.146 22.7769 107.33 23.1231 106.291 23.4692C105.253 23.8154 104.066 23.9538 102.953 23.9538ZM102.582 12.7385C101.914 12.7385 101.395 12.9461 101.098 13.4307C100.802 13.9154 100.579 14.5384 100.505 15.2308L100.579 15.3H104.585V14.9538C104.585 14.1923 104.436 13.7077 104.14 13.3615C103.695 12.877 103.249 12.7385 102.582 12.7385ZM87.2993 23.9538C85.1479 23.9538 83.2929 23.2616 82.032 22.0154C80.771 20.7692 80.103 19.1077 80.103 17.1692V16.6846C80.103 14.5384 80.6965 12.8077 81.8835 11.4231C83.0705 10.1077 84.7769 9.41538 87.0023 9.41538C89.0058 9.41538 90.6378 9.96922 91.7507 11.0769C92.8632 12.1846 93.4567 13.7769 93.4567 15.7154V18H84.9254V18.0692C84.9994 18.8308 85.3704 19.3154 85.8899 19.8C86.4089 20.2846 87.1509 20.4923 87.9668 20.4923C88.8573 20.4923 89.5248 20.4231 90.0443 20.2846C90.5638 20.1462 91.3052 19.9385 92.0472 19.5923L93.1602 22.2923C92.4922 22.7769 91.6762 23.1231 90.6378 23.4692C89.6733 23.8154 88.4863 23.9538 87.2993 23.9538ZM87.0023 12.7385C86.3349 12.7385 85.8154 12.9461 85.5189 13.4307C85.2219 13.9154 84.9994 14.5384 84.9254 15.2308L84.9994 15.3H89.0058V14.9538C89.0058 14.1923 88.8573 13.7077 88.5603 13.3615C88.1153 12.877 87.6703 12.7385 87.0023 12.7385ZM73.1297 17.7231L74.7617 9.55387H78.9901L75.5777 23.6077H71.6458L69.1978 16.1308H69.1233L66.6754 23.6077H62.7435L59.2566 9.62306H63.5595L65.1914 17.8615H65.2654L67.6399 9.62306H70.6073L73.1297 17.7231ZM53.4697 19.6615C53.4697 19.3154 53.2472 18.9692 52.8022 18.6923C52.3573 18.4154 51.6153 18.1385 50.5023 17.9308C48.796 17.5846 47.4606 17.1 46.5704 16.4769C45.6802 15.7846 45.235 14.8846 45.235 13.7077C45.235 12.4616 45.8285 11.4231 46.8671 10.5231C47.98 9.62306 49.4638 9.2769 51.3183 9.2769C53.2472 9.2769 54.8792 9.6923 55.9922 10.5231C57.1791 11.3538 57.6986 12.3923 57.6241 13.7769V13.8461H53.1732C53.1732 13.2923 53.0247 12.8769 52.7277 12.6C52.4312 12.3231 51.9118 12.1846 51.3183 12.1846C50.7993 12.1846 50.4283 12.3231 50.0573 12.6C49.6863 12.8769 49.5378 13.1539 49.5378 13.5692C49.5378 13.9846 49.7603 14.2615 50.1313 14.5384C50.5023 14.8154 51.3183 15.0231 52.4312 15.2308C54.2117 15.5769 55.6212 16.0616 56.4371 16.6846C57.3276 17.3769 57.7726 18.2769 57.7726 19.5231C57.7726 20.7692 57.1791 21.8077 55.9922 22.6384C54.8052 23.4692 53.2472 23.8846 51.3183 23.8846C49.3153 23.8846 47.6832 23.4 46.4962 22.4308C45.3092 21.4615 44.7899 20.4231 44.8641 19.1769V19.1077H49.0928C49.0928 19.8 49.3153 20.2846 49.7603 20.4923C50.2058 20.7 50.7993 20.9769 51.4668 20.9769C52.1343 20.9769 52.5798 20.8385 52.8762 20.6308C53.3212 20.4231 53.4697 20.0769 53.4697 19.6615ZM33.2908 9.55387L33.4392 11.4923C33.9585 10.8 34.5521 10.2462 35.2197 9.90002C35.9616 9.48463 36.7035 9.2769 37.5937 9.2769C39.0033 9.2769 40.1903 9.76154 41.0063 10.5923C41.8224 11.4231 42.2675 12.8769 42.2675 14.8154V23.6077H37.7421V14.8846C37.7421 14.0539 37.5937 13.5692 37.2228 13.2231C36.8518 12.8769 36.3325 12.7385 35.6648 12.7385C35.2197 12.7385 34.8488 12.8077 34.4779 12.9461C34.1069 13.0846 33.8102 13.2923 33.5876 13.5692V23.6769H28.9879V9.62306H33.2908V9.55387ZM26.1689 6.92309H21.495V3.39228H26.1689V6.92309ZM26.1689 23.6769H21.495V9.62306H26.1689V23.6769ZM11.2572 23.6769V12.6H9.10576V9.55387H11.2572V8.1C11.2572 6.5077 11.7765 5.26155 12.7409 4.36156C13.7795 3.46157 15.3375 3.25385 16.4503 3.25385C16.8213 3.25385 19.4178 3.25385 19.4178 3.25385V6.78461C19.4178 6.78461 18.0082 6.78461 17.7115 6.78461C17.118 6.78461 16.6729 6.92309 16.3761 7.20001C16.0794 7.47693 15.931 7.89232 15.931 8.44615V9.48463H18.8243V12.5307H15.931V23.5384H11.2572V23.6769ZM2.35469 4.56924C2.35469 0.346157 4.72867 0 8.73482 0V3.32309C6.88012 3.32309 6.13823 3.60001 6.13823 4.63848V10.1077C6.13823 11.3538 6.21243 12.6692 5.09961 13.5C6.21243 14.3308 6.13823 15.5769 6.13823 16.8923V22.3615C6.13823 23.4692 6.88012 23.6769 8.73482 23.6769V27C4.72867 27 2.35469 26.6538 2.35469 22.4308V16.8923C2.35469 15.9923 2.35469 15.0231 0.5 15.0231V13.5692V12.1154C2.35469 12.1154 2.35469 11.0769 2.35469 10.2462V4.56924Z" fill="white"/>
</svg>
