<?xml version="1.0" encoding="utf-8"?>
<!-- Generator: Adobe Illustrator 27.4.0, SVG Export Plug-In . SVG Version: 6.00 Build 0)  -->
<svg version="1.1" id="Capa_1" xmlns="http://www.w3.org/2000/svg" xmlns:xlink="http://www.w3.org/1999/xlink" x="0px" y="0px"
	 viewBox="0 0 121 27" style="enable-background:new 0 0 121 27;" xml:space="preserve">
<style type="text/css">
	.st0{fill:#063255;}
</style>
<path class="st0" d="M116.8,3.4v6.3h2.4v3h-2.4v5.7c0,0.6,0.1,1,0.4,1.2c0.3,0.3,0.7,0.4,1.3,0.4c0.3,0,1.7,0,1.7,0v3.6
	c0,0-2.6,0-3,0c-1.2,0-2.7-0.2-3.7-1.1c-1-0.9-1.5-2.1-1.5-3.7v-6.2H110v-3h2.2V3.4H116.8z M103,24c-2.2,0-4-0.7-5.3-1.9
	c-1.3-1.2-1.9-2.9-1.9-4.8v-0.5c0-2.1,0.6-3.9,1.8-5.3c1.2-1.3,2.9-2,5.1-2c2,0,3.6,0.6,4.7,1.7c1.2,1.2,1.7,2.7,1.7,4.6V18h-8.5
	v0.1c0.1,0.8,0.4,1.2,1,1.7s1.3,0.7,2.1,0.7c0.9,0,1.6-0.1,2.1-0.2c0.5-0.1,1.3-0.3,2-0.7l1.1,2.7c-0.7,0.5-1.5,0.8-2.5,1.2
	C105.3,23.8,104.1,24,103,24z M102.6,12.7c-0.7,0-1.2,0.2-1.5,0.7c-0.3,0.5-0.5,1.1-0.6,1.8l0.1,0.1h4V15c0-0.8-0.1-1.2-0.4-1.6
	C103.7,12.9,103.2,12.7,102.6,12.7z M87.3,24c-2.2,0-4-0.7-5.3-1.9c-1.3-1.2-1.9-2.9-1.9-4.8v-0.5c0-2.1,0.6-3.9,1.8-5.3
	c1.2-1.3,2.9-2,5.1-2c2,0,3.6,0.6,4.7,1.7c1.1,1.1,1.7,2.7,1.7,4.6V18h-8.5v0.1c0.1,0.8,0.4,1.2,1,1.7c0.5,0.5,1.3,0.7,2.1,0.7
	c0.9,0,1.6-0.1,2.1-0.2c0.5-0.1,1.3-0.3,2-0.7l1.1,2.7c-0.7,0.5-1.5,0.8-2.5,1.2C89.7,23.8,88.5,24,87.3,24z M87,12.7
	c-0.7,0-1.2,0.2-1.5,0.7c-0.3,0.5-0.5,1.1-0.6,1.8l0.1,0.1h4V15c0-0.8-0.1-1.2-0.4-1.6C88.1,12.9,87.7,12.7,87,12.7z M73.1,17.7
	l1.6-8.2H79l-3.4,14.1h-3.9l-2.4-7.5h-0.1l-2.4,7.5h-3.9l-3.5-14h4.3l1.6,8.2h0.1l2.4-8.2h3L73.1,17.7z M53.5,19.7
	c0-0.3-0.2-0.7-0.7-1c-0.4-0.3-1.2-0.6-2.3-0.8c-1.7-0.3-3-0.8-3.9-1.5c-0.9-0.7-1.3-1.6-1.3-2.8c0-1.2,0.6-2.3,1.6-3.2
	c1.1-0.9,2.6-1.2,4.5-1.2c1.9,0,3.6,0.4,4.7,1.2c1.2,0.8,1.7,1.9,1.6,3.3v0.1h-4.5c0-0.6-0.1-1-0.4-1.2c-0.3-0.3-0.8-0.4-1.4-0.4
	c-0.5,0-0.9,0.1-1.3,0.4c-0.4,0.3-0.5,0.6-0.5,1c0,0.4,0.2,0.7,0.6,1c0.4,0.3,1.2,0.5,2.3,0.7c1.8,0.3,3.2,0.8,4,1.5
	c0.9,0.7,1.3,1.6,1.3,2.8c0,1.2-0.6,2.3-1.8,3.1c-1.2,0.8-2.7,1.2-4.7,1.2c-2,0-3.6-0.5-4.8-1.5c-1.2-1-1.7-2-1.6-3.3v-0.1h4.2
	c0,0.7,0.2,1.2,0.7,1.4c0.4,0.2,1,0.5,1.7,0.5s1.1-0.1,1.4-0.3C53.3,20.4,53.5,20.1,53.5,19.7z M33.3,9.6l0.1,1.9
	c0.5-0.7,1.1-1.2,1.8-1.6c0.7-0.4,1.5-0.6,2.4-0.6c1.4,0,2.6,0.5,3.4,1.3c0.8,0.8,1.3,2.3,1.3,4.2v8.8h-4.5v-8.7
	c0-0.8-0.1-1.3-0.5-1.7c-0.4-0.3-0.9-0.5-1.6-0.5c-0.4,0-0.8,0.1-1.2,0.2c-0.4,0.1-0.7,0.3-0.9,0.6v10.1H29V9.6L33.3,9.6L33.3,9.6z
	 M26.2,6.9h-4.7V3.4h4.7V6.9z M26.2,23.7h-4.7V9.6h4.7V23.7z M11.3,23.7V12.6H9.1v-3h2.2V8.1c0-1.6,0.5-2.8,1.5-3.7
	c1-0.9,2.6-1.1,3.7-1.1c0.4,0,3,0,3,0v3.5c0,0-1.4,0-1.7,0c-0.6,0-1,0.1-1.3,0.4c-0.3,0.3-0.4,0.7-0.4,1.2v1h2.9v3h-2.9v11h-4.7
	V23.7z M2.4,4.6C2.4,0.3,4.7,0,8.7,0v3.3c-1.9,0-2.6,0.3-2.6,1.3v5.5c0,1.2,0.1,2.6-1,3.4c1.1,0.8,1,2.1,1,3.4v5.5
	c0,1.1,0.7,1.3,2.6,1.3V27c-4,0-6.4-0.3-6.4-4.6v-5.5c0-0.9,0-1.9-1.9-1.9v-1.5v-1.5c1.9,0,1.9-1,1.9-1.9V4.6z"/>
</svg>
